<?xml version="1.0" encoding="UTF-8"?><svg id="Layer_1" xmlns="http://www.w3.org/2000/svg" width="157.68mm" height="44.79mm" viewBox="0 0 446.97 126.97"><defs><style>.cls-1{stroke:#f0f0f0;stroke-miterlimit:10;stroke-width:.5px;}.cls-1,.cls-2{fill:#1d1d1b;}.cls-2{stroke-width:0px;}</style></defs><path class="cls-1" d="M74.49,14.25c-1.15.23-2.23.61-3.22,1.12-3.03,2.78-5.31,6.3-6.63,10.2,2.35-1.62,4.64-3.4,6.84-5.33,2.23-1.96,4.32-4.03,6.26-6.2-1.06-.07-2.15,0-3.25.22Z"/><path class="cls-1" d="M70.67,15.13c-2.72-3.01-6.17-5.3-9.99-6.64.23,2.82.62,5.65,1.19,8.5.58,2.88,1.32,5.69,2.21,8.42,1.32-3.91,3.59-7.45,6.59-10.27Z"/><path class="cls-1" d="M71.15,14.78c1-.5,2.08-.87,3.23-1.1.98-.2,1.96-.28,2.91-.25-2.51-1.18-5.11-2.23-7.8-3.14-2.84-.96-5.7-1.74-8.57-2.34,3.91,1.39,7.44,3.74,10.22,6.83Z"/><path class="cls-2" d="M350.18,99.67h-209.94c-3.84,0-6.96-3.07-6.96-6.84V24.56c0-3.77,3.12-6.84,6.96-6.84h2.77v2.33h-2.77c-2.56,0-4.63,2.02-4.63,4.51v68.27c0,2.49,2.08,4.51,4.63,4.51h209.94c2.56,0,4.63-2.02,4.63-4.51V24.56c0-2.49-2.08-4.51-4.63-4.51h-159.73v-2.33h159.73c3.84,0,6.96,3.07,6.96,6.84v68.27c0,3.77-3.12,6.84-6.96,6.84Z"/><path class="cls-2" d="M40.39,12.68h10.79v59.58h-10.79v-4.54c-2.1,2-4.22,3.44-6.33,4.33-2.12.88-4.41,1.32-6.89,1.32-5.55,0-10.35-2.15-14.4-6.46-4.05-4.31-6.08-9.66-6.08-16.06s1.96-12.08,5.88-16.32c3.92-4.24,8.68-6.36,14.29-6.36,2.58,0,5,.49,7.26,1.46,2.26.97,4.35,2.44,6.28,4.39V12.68ZM29.06,38.12c-3.34,0-6.1,1.18-8.31,3.54-2.2,2.36-3.31,5.38-3.31,9.07s1.12,6.77,3.37,9.17c2.25,2.4,5.01,3.6,8.29,3.6s6.2-1.18,8.43-3.54c2.23-2.36,3.35-5.45,3.35-9.26s-1.12-6.77-3.35-9.09c-2.23-2.32-5.05-3.48-8.46-3.48Z"/><rect class="cls-2" x="60.9" y="29.27" width="10.79" height="42.99"/><path class="cls-2" d="M113.21,29.27h10.79v42.99h-10.79v-4.54c-2.1,2-4.22,3.44-6.33,4.33-2.12.88-4.41,1.32-6.89,1.32-5.55,0-10.35-2.15-14.4-6.46-4.05-4.31-6.08-9.66-6.08-16.06s1.96-12.08,5.88-16.32,8.68-6.36,14.29-6.36c2.58,0,5,.49,7.26,1.46,2.26.97,4.35,2.44,6.28,4.39v-4.74ZM101.87,38.12c-3.34,0-6.1,1.18-8.31,3.54-2.2,2.36-3.31,5.38-3.31,9.07s1.12,6.77,3.37,9.17c2.25,2.4,5.01,3.6,8.29,3.6s6.2-1.18,8.43-3.54c2.23-2.36,3.35-5.45,3.35-9.26s-1.12-6.77-3.35-9.09c-2.23-2.32-5.05-3.48-8.46-3.48Z"/><path class="cls-2" d="M177.93,29.27h10.75v36.82c0,7.27-1.46,12.62-4.39,16.04-3.92,4.64-9.84,6.95-17.74,6.95-4.21,0-7.76-.53-10.63-1.58s-5.29-2.6-7.27-4.64c-1.98-2.04-3.44-4.52-4.39-7.45h11.89c1.05,1.21,2.41,2.13,4.07,2.75s3.62.93,5.89.93c2.9,0,5.23-.45,6.99-1.34s3.01-2.05,3.73-3.48c.72-1.42,1.09-3.87,1.09-7.35-1.9,1.9-3.89,3.26-5.97,4.09-2.08.83-4.44,1.24-7.07,1.24-5.77,0-10.64-2.08-14.62-6.24-3.98-4.16-5.97-9.43-5.97-15.8,0-6.82,2.11-12.3,6.32-16.44,3.82-3.74,8.38-5.61,13.67-5.61,2.48,0,4.81.45,7.01,1.36s4.41,2.4,6.62,4.48v-4.74ZM166.75,38.24c-3.4,0-6.2,1.14-8.42,3.42-2.21,2.28-3.32,5.14-3.32,8.59s1.13,6.52,3.4,8.81c2.27,2.29,5.11,3.44,8.53,3.44s6.1-1.12,8.28-3.36c2.17-2.24,3.26-5.18,3.26-8.81s-1.09-6.49-3.28-8.73c-2.19-2.24-5-3.36-8.45-3.36Z"/><path class="cls-2" d="M197.05,29.27h9.25v5.41c1-2.13,2.33-3.75,3.99-4.86s3.48-1.66,5.45-1.66c1.4,0,2.86.37,4.39,1.11l-3.36,9.28c-1.26-.63-2.3-.95-3.12-.95-1.66,0-3.06,1.03-4.21,3.08-1.15,2.05-1.72,6.08-1.72,12.09l.04,2.09v17.38h-10.71V29.27Z"/><path class="cls-2" d="M257.18,29.27h10.79v42.99h-10.79v-4.54c-2.1,2-4.22,3.44-6.33,4.33-2.12.88-4.41,1.32-6.89,1.32-5.55,0-10.35-2.15-14.4-6.46-4.05-4.31-6.08-9.66-6.08-16.06s1.96-12.08,5.88-16.32c3.92-4.24,8.68-6.36,14.29-6.36,2.58,0,5,.49,7.26,1.46,2.26.97,4.35,2.44,6.28,4.39v-4.74ZM245.85,38.12c-3.34,0-6.1,1.18-8.31,3.54-2.2,2.36-3.31,5.38-3.31,9.07s1.12,6.77,3.37,9.17c2.25,2.4,5.01,3.6,8.29,3.6s6.2-1.18,8.43-3.54c2.23-2.36,3.35-5.45,3.35-9.26s-1.12-6.77-3.35-9.09c-2.23-2.32-5.05-3.48-8.46-3.48Z"/><path class="cls-2" d="M278.8,29.27h10.79v4.94c1.84-2.03,3.89-3.54,6.15-4.54,2.25-1,4.71-1.5,7.37-1.5s5.11.66,7.28,1.98c2.16,1.32,3.9,3.24,5.22,5.77,1.71-2.53,3.81-4.45,6.31-5.77,2.49-1.32,5.21-1.98,8.16-1.98s5.75.71,8.07,2.13c2.32,1.42,3.99,3.28,5,5.57,1.02,2.29,1.52,6.02,1.52,11.18v25.21h-10.86v-21.81c0-4.87-.61-8.17-1.82-9.9-1.21-1.73-3.03-2.59-5.45-2.59-1.84,0-3.5.53-4.96,1.58-1.46,1.05-2.55,2.51-3.26,4.37-.71,1.86-1.07,4.84-1.07,8.95v19.4h-10.86v-20.82c0-3.85-.28-6.63-.85-8.36-.57-1.73-1.42-3.01-2.55-3.85-1.14-.84-2.51-1.26-4.12-1.26-1.8,0-3.43.53-4.89,1.6-1.47,1.07-2.56,2.56-3.29,4.48-.73,1.92-1.09,4.95-1.09,9.09v19.12h-10.79V29.27Z"/><path class="cls-2" d="M365.97,29.43h10.79v4.94c1.84-2.03,3.89-3.54,6.15-4.54,2.25-1,4.71-1.5,7.37-1.5s5.11.66,7.28,1.98c2.16,1.32,3.9,3.24,5.22,5.77,1.71-2.53,3.81-4.45,6.31-5.77,2.49-1.32,5.21-1.98,8.16-1.98s5.75.71,8.07,2.13c2.32,1.42,3.99,3.28,5,5.57s1.52,6.02,1.52,11.18v25.21h-10.86v-21.81c0-4.87-.61-8.17-1.82-9.9-1.21-1.73-3.03-2.59-5.45-2.59-1.84,0-3.5.53-4.96,1.58s-2.55,2.51-3.26,4.37c-.71,1.86-1.07,4.84-1.07,8.95v19.4h-10.86v-20.82c0-3.85-.28-6.63-.85-8.36s-1.42-3.01-2.55-3.85c-1.14-.84-2.51-1.26-4.12-1.26-1.8,0-3.43.53-4.89,1.6s-2.56,2.56-3.29,4.48c-.73,1.92-1.09,4.95-1.09,9.09v19.12h-10.79V29.43Z"/><path class="cls-2" d="M395.82,84.04c.32,0,.6.11.83.34s.34.5.34.82-.11.6-.34.83c-.23.23-.5.34-.83.34s-.6-.11-.83-.34-.34-.5-.34-.83.11-.6.34-.82c.23-.23.51-.34.83-.34Z"/><path class="cls-2" d="M406.93,79.68l-1.7.93c-.32-.33-.63-.56-.95-.69-.31-.13-.68-.19-1.09-.19-.76,0-1.38.23-1.85.68-.47.45-.71,1.04-.71,1.75s.23,1.25.68,1.69c.45.44,1.05.66,1.79.66.91,0,1.62-.31,2.13-.93l1.61,1.1c-.87,1.13-2.1,1.7-3.69,1.7-1.43,0-2.55-.42-3.35-1.27s-1.21-1.84-1.21-2.97c0-.79.2-1.51.59-2.17.39-.66.94-1.18,1.65-1.56.7-.38,1.49-.57,2.36-.57.81,0,1.53.16,2.17.48.64.32,1.17.78,1.58,1.37Z"/><path class="cls-2" d="M412.58,77.83c.77,0,1.49.19,2.16.57.67.38,1.2.9,1.58,1.56.38.66.57,1.37.57,2.13s-.19,1.48-.57,2.15c-.38.67-.9,1.19-1.56,1.56s-1.38.56-2.17.56c-1.16,0-2.16-.41-2.98-1.24-.82-.83-1.24-1.83-1.24-3.02,0-1.27.47-2.33,1.4-3.17.82-.74,1.75-1.1,2.81-1.1ZM412.62,79.75c-.63,0-1.16.22-1.58.66s-.63,1-.63,1.69.21,1.28.62,1.72c.42.44.94.66,1.58.66s1.17-.22,1.59-.66c.42-.44.63-1.01.63-1.71s-.21-1.26-.62-1.7-.95-.65-1.6-.65Z"/><path class="cls-2" d="M418.54,78.04h2.04v.93c.35-.38.74-.67,1.16-.86s.89-.28,1.39-.28.97.12,1.38.37c.41.25.74.61.99,1.09.32-.48.72-.84,1.19-1.09.47-.25.98-.37,1.54-.37s1.08.13,1.52.4.75.62.95,1.05c.19.43.29,1.14.29,2.11v4.76h-2.05v-4.12c0-.92-.11-1.54-.34-1.87-.23-.33-.57-.49-1.03-.49-.35,0-.66.1-.94.3-.28.2-.48.47-.62.83-.13.35-.2.91-.2,1.69v3.66h-2.05v-3.93c0-.73-.05-1.25-.16-1.58-.11-.33-.27-.57-.48-.73s-.47-.24-.78-.24c-.34,0-.65.1-.92.3-.28.2-.48.48-.62.85-.14.36-.21.93-.21,1.72v3.61h-2.04v-8.12Z"/><path class="cls-2" d="M147.55,13.67v.93c.38-.38.79-.67,1.23-.86s.92-.29,1.42-.29c1.1,0,2.03.41,2.79,1.24.77.83,1.15,1.89,1.15,3.19s-.4,2.3-1.19,3.14c-.79.84-1.73,1.26-2.82,1.26-.48,0-.93-.09-1.35-.26-.42-.17-.83-.45-1.24-.84v3.96h-2.09v-11.47h2.09ZM149.76,15.4c-.66,0-1.21.23-1.65.68s-.66,1.04-.66,1.77.22,1.35.66,1.81.99.69,1.65.69,1.18-.23,1.62-.7c.44-.47.66-1.06.66-1.79s-.22-1.31-.65-1.77c-.43-.46-.98-.69-1.64-.69Z"/><path class="cls-2" d="M155.66,10.43h2.11v11.64h-2.11v-11.64Z"/><path class="cls-2" d="M165.87,13.67h2.11v8.39h-2.11v-.89c-.41.39-.82.67-1.24.84s-.86.26-1.34.26c-1.08,0-2.02-.42-2.81-1.26-.79-.84-1.19-1.89-1.19-3.14s.38-2.36,1.15-3.19c.77-.83,1.7-1.24,2.79-1.24.5,0,.98.1,1.42.29s.85.48,1.23.86v-.93ZM163.66,15.4c-.65,0-1.19.23-1.62.69s-.65,1.05-.65,1.77.22,1.32.66,1.79c.44.47.98.7,1.62.7s1.21-.23,1.65-.69.65-1.06.65-1.81-.22-1.32-.65-1.77-.99-.68-1.65-.68Z"/><path class="cls-2" d="M170.11,13.67h2.11v.86c.48-.4.91-.68,1.3-.84.39-.16.78-.24,1.19-.24.83,0,1.54.29,2.12.87.49.49.73,1.22.73,2.19v5.55h-2.08v-3.68c0-1-.04-1.67-.13-2-.09-.33-.25-.58-.47-.75-.22-.17-.5-.26-.83-.26-.43,0-.79.14-1.1.43-.31.29-.52.68-.64,1.18-.06.26-.09.83-.09,1.7v3.37h-2.11v-8.39Z"/><path class="cls-2" d="M183.53,13.45c.79,0,1.54.2,2.23.59s1.24.93,1.63,1.61c.39.68.59,1.41.59,2.2s-.2,1.53-.59,2.22-.93,1.23-1.61,1.62c-.68.39-1.43.58-2.25.58-1.2,0-2.23-.43-3.08-1.28-.85-.86-1.28-1.9-1.28-3.12,0-1.31.48-2.4,1.44-3.28.84-.76,1.81-1.14,2.91-1.14ZM183.57,15.43c-.65,0-1.2.23-1.63.68s-.65,1.04-.65,1.75.22,1.32.65,1.77.98.68,1.63.68,1.21-.23,1.65-.69c.44-.46.66-1.05.66-1.77s-.22-1.31-.65-1.76-.98-.68-1.65-.68Z"/><path class="cls-2" d="M146.64,114.78v-9.71h2.01c1.45,0,2.51.12,3.16.35.94.33,1.68.9,2.21,1.72.53.81.79,1.78.79,2.91,0,.97-.21,1.83-.63,2.57-.42.74-.97,1.28-1.64,1.64s-1.61.53-2.82.53h-3.09ZM147.57,113.87h1.12c1.34,0,2.27-.08,2.79-.25.73-.24,1.3-.66,1.72-1.28.42-.62.63-1.37.63-2.26,0-.94-.23-1.74-.68-2.4s-1.08-1.12-1.89-1.36c-.61-.18-1.61-.28-3-.28h-.69v7.84Z"/><path class="cls-2" d="M156.55,105.08h.97v9.71h-.97v-9.71Z"/><path class="cls-2" d="M163.71,105.08l4.53,9.71h-1.05l-1.53-3.19h-4.18l-1.51,3.19h-1.08l4.59-9.71h.24ZM163.59,107.14l-1.66,3.51h3.32l-1.66-3.51Z"/><path class="cls-2" d="M169.3,114.78l1.39-9.71h.16l3.95,7.96,3.91-7.96h.16l1.4,9.71h-.95l-.96-6.94-3.43,6.94h-.25l-3.47-6.99-.95,6.99h-.94Z"/><path class="cls-2" d="M184.53,104.83h1.04v12.58h-1.04v-12.58Z"/><path class="cls-2" d="M190.27,105.08h1.93c1.11,0,1.86.05,2.24.15.55.14,1.01.42,1.36.84.35.42.53.96.53,1.6s-.17,1.18-.51,1.6c-.34.42-.82.7-1.42.85-.44.11-1.26.16-2.47.16h-.69v4.51h-.97v-9.71ZM191.24,106.03v3.29l1.64.02c.66,0,1.15-.06,1.46-.18.31-.12.55-.32.73-.59.18-.27.26-.57.26-.91s-.09-.62-.26-.89c-.18-.27-.41-.46-.7-.58-.29-.11-.76-.17-1.42-.17h-1.72Z"/><path class="cls-2" d="M197.98,104.83h.92v9.95h-.92v-9.95Z"/><path class="cls-2" d="M207.98,107.61v7.18h-.91v-1.23c-.39.47-.82.82-1.3,1.06-.48.24-1.01.36-1.58.36-1.02,0-1.88-.37-2.6-1.1s-1.08-1.63-1.08-2.69.36-1.92,1.09-2.65c.73-.73,1.6-1.1,2.62-1.1.59,0,1.12.13,1.6.38.48.25.9.63,1.26,1.13v-1.32h.91ZM204.29,108.31c-.51,0-.99.13-1.42.38s-.78.61-1.04,1.06c-.26.46-.39.94-.39,1.45s.13.99.39,1.45c.26.46.61.82,1.04,1.08.44.26.91.39,1.41.39s.98-.13,1.44-.38c.45-.25.8-.6,1.04-1.03.24-.44.37-.92.37-1.47,0-.83-.27-1.52-.82-2.08-.55-.56-1.22-.84-2.02-.84Z"/><path class="cls-2" d="M210.06,107.61h.92v1.29c.37-.49.78-.86,1.23-1.11s.94-.37,1.46-.37,1.01.14,1.43.41c.42.27.72.64.92,1.1s.3,1.18.3,2.16v3.7h-.92v-3.42c0-.83-.03-1.38-.1-1.66-.11-.48-.31-.83-.62-1.07s-.7-.36-1.19-.36c-.56,0-1.06.18-1.5.55-.44.37-.73.83-.87,1.37-.09.36-.13,1.01-.13,1.95v2.63h-.92v-7.18Z"/><path class="cls-2" d="M221.7,107.42c1.11,0,2.02.4,2.75,1.2.66.73.99,1.59.99,2.59s-.35,1.88-1.05,2.63c-.7.75-1.6,1.12-2.69,1.12s-2-.38-2.7-1.12c-.7-.75-1.05-1.63-1.05-2.63s.33-1.86.99-2.59c.73-.8,1.65-1.21,2.76-1.21ZM221.69,108.32c-.77,0-1.43.28-1.98.85s-.83,1.25-.83,2.06c0,.52.13,1,.38,1.45.25.45.59.79,1.02,1.04.43.24.9.37,1.41.37s.98-.12,1.41-.37.77-.59,1.02-1.04c.25-.45.38-.93.38-1.45,0-.8-.28-1.49-.83-2.06-.55-.57-1.21-.85-1.98-.85Z"/><path class="cls-2" d="M233.34,107.61h.92v5.72c0,1.01-.09,1.74-.26,2.21-.24.66-.66,1.17-1.26,1.52-.6.36-1.32.53-2.16.53-.62,0-1.17-.09-1.66-.26-.49-.17-.89-.41-1.2-.7-.31-.29-.59-.72-.85-1.29h1c.27.48.63.83,1.06,1.06.43.23.97.34,1.6.34s1.16-.12,1.6-.35c.43-.23.74-.53.93-.88.19-.36.28-.93.28-1.72v-.37c-.35.44-.77.78-1.27,1.01-.5.24-1.03.35-1.6.35-.66,0-1.28-.16-1.86-.49-.58-.33-1.03-.77-1.35-1.32-.32-.55-.48-1.16-.48-1.83s.17-1.28.5-1.86c.33-.57.79-1.03,1.37-1.36.58-.33,1.2-.5,1.85-.5.54,0,1.04.11,1.5.33s.91.59,1.34,1.1v-1.25ZM230.61,108.31c-.52,0-1.01.13-1.46.38-.45.25-.8.6-1.06,1.05-.25.45-.38.93-.38,1.45,0,.79.26,1.44.79,1.95s1.21.77,2.05.77,1.53-.25,2.05-.77c.52-.51.78-1.18.78-2.01,0-.54-.12-1.02-.36-1.45-.24-.42-.57-.76-1.01-1.01-.44-.25-.9-.37-1.41-.37Z"/><path class="cls-2" d="M235.89,107.61h.94v1.05c.28-.41.58-.72.89-.93.31-.2.64-.31.98-.31.26,0,.53.08.82.24l-.48.78c-.19-.08-.36-.13-.49-.13-.31,0-.6.13-.89.38s-.5.65-.65,1.18c-.11.41-.17,1.24-.17,2.48v2.43h-.94v-7.18Z"/><path class="cls-2" d="M247.46,107.61v7.18h-.91v-1.23c-.39.47-.82.82-1.3,1.06-.48.24-1.01.36-1.58.36-1.02,0-1.88-.37-2.6-1.1-.72-.74-1.08-1.63-1.08-2.69s.36-1.92,1.09-2.65c.73-.73,1.6-1.1,2.62-1.1.59,0,1.12.13,1.6.38.48.25.9.63,1.26,1.13v-1.32h.91ZM243.77,108.31c-.51,0-.99.13-1.42.38-.43.25-.78.61-1.04,1.06s-.38.94-.38,1.45.13.99.39,1.45c.26.46.61.82,1.04,1.08.44.26.91.39,1.41.39s.98-.13,1.44-.38c.45-.25.8-.6,1.04-1.03.24-.44.37-.92.37-1.47,0-.83-.27-1.52-.82-2.08s-1.22-.84-2.02-.84Z"/><path class="cls-2" d="M249.53,107.61h.92v1.24c.32-.46.65-.79.99-1,.47-.28.96-.42,1.47-.42.35,0,.68.07.99.2.31.14.57.32.77.54s.37.55.52.97c.31-.56.69-.99,1.15-1.28s.96-.44,1.49-.44c.5,0,.93.13,1.31.38.38.25.66.6.85,1.05s.28,1.12.28,2.02v3.92h-.94v-3.92c0-.77-.05-1.3-.17-1.59-.11-.29-.3-.52-.56-.7-.27-.18-.58-.26-.95-.26-.45,0-.86.13-1.23.4-.37.26-.64.62-.81,1.06s-.26,1.17-.26,2.2v2.81h-.92v-3.68c0-.87-.05-1.46-.16-1.77-.11-.31-.3-.56-.56-.75s-.59-.28-.96-.28c-.43,0-.83.13-1.2.39-.37.26-.65.6-.83,1.04s-.27,1.1-.27,2v3.04h-.92v-7.18Z"/><path class="cls-2" d="M262.21,107.61h.92v1.24c.32-.46.65-.79.99-1,.47-.28.96-.42,1.47-.42.35,0,.68.07.99.2.31.14.57.32.77.54s.37.55.52.97c.31-.56.69-.99,1.15-1.28s.96-.44,1.49-.44c.5,0,.93.13,1.31.38.38.25.66.6.85,1.05s.28,1.12.28,2.02v3.92h-.94v-3.92c0-.77-.05-1.3-.17-1.59-.11-.29-.3-.52-.56-.7-.27-.18-.58-.26-.95-.26-.45,0-.86.13-1.23.4-.37.26-.64.62-.81,1.06s-.26,1.17-.26,2.2v2.81h-.92v-3.68c0-.87-.05-1.46-.16-1.77-.11-.31-.3-.56-.56-.75s-.59-.28-.96-.28c-.43,0-.83.13-1.2.39-.37.26-.65.6-.83,1.04s-.27,1.1-.27,2v3.04h-.92v-7.18Z"/><path class="cls-2" d="M275.21,104.65c.21,0,.39.08.54.22.15.15.22.33.22.54s-.07.38-.22.53c-.15.15-.33.22-.54.22s-.38-.07-.53-.22c-.15-.15-.22-.33-.22-.53s.07-.39.22-.54c.15-.15.33-.22.53-.22ZM274.75,107.61h.92v7.18h-.92v-7.18Z"/><path class="cls-2" d="M277.59,107.61h.92v1.29c.37-.49.78-.86,1.23-1.11.45-.24.94-.37,1.46-.37s1.01.14,1.43.41c.42.27.72.64.92,1.1.2.46.3,1.18.3,2.16v3.7h-.92v-3.42c0-.83-.04-1.38-.1-1.66-.11-.48-.31-.83-.62-1.07-.3-.24-.7-.36-1.19-.36-.56,0-1.06.18-1.5.55-.44.37-.73.83-.88,1.37-.09.36-.13,1.01-.13,1.95v2.63h-.92v-7.18Z"/><path class="cls-2" d="M292.03,107.61h.92v5.72c0,1.01-.09,1.74-.26,2.21-.24.66-.66,1.17-1.26,1.52-.6.36-1.32.53-2.16.53-.62,0-1.17-.09-1.66-.26-.49-.17-.89-.41-1.2-.7s-.59-.72-.85-1.29h1c.27.48.63.83,1.06,1.06.43.23.97.34,1.61.34s1.16-.12,1.6-.35c.43-.23.74-.53.93-.88.19-.36.28-.93.28-1.72v-.37c-.35.44-.77.78-1.27,1.01s-1.04.35-1.6.35c-.66,0-1.28-.16-1.86-.49-.58-.33-1.03-.77-1.35-1.32-.32-.55-.48-1.16-.48-1.83s.17-1.28.5-1.86.79-1.03,1.37-1.36c.58-.33,1.2-.5,1.85-.5.54,0,1.04.11,1.5.33s.91.59,1.34,1.1v-1.25ZM289.3,108.31c-.52,0-1.01.13-1.46.38-.45.25-.8.6-1.06,1.05-.25.45-.38.93-.38,1.45,0,.79.26,1.44.79,1.95s1.21.77,2.05.77,1.53-.25,2.05-.77c.52-.51.78-1.18.78-2.01,0-.54-.12-1.02-.36-1.45-.24-.42-.57-.76-1.01-1.01-.44-.25-.9-.37-1.41-.37Z"/><path class="cls-2" d="M297.44,104.83h1.04v12.58h-1.04v-12.58Z"/><path class="cls-2" d="M307.81,104.83c1.47,0,2.7.49,3.69,1.47.99.98,1.49,2.19,1.49,3.62s-.49,2.63-1.48,3.62-2.19,1.48-3.62,1.48-2.65-.49-3.64-1.48c-.99-.99-1.49-2.18-1.49-3.58,0-.93.23-1.8.68-2.59.45-.8,1.07-1.42,1.85-1.87.78-.45,1.62-.68,2.53-.68ZM307.86,105.78c-.72,0-1.4.19-2.04.56-.64.37-1.15.88-1.51,1.51s-.54,1.34-.54,2.12c0,1.15.4,2.13,1.2,2.92.8.79,1.76,1.19,2.89,1.19.75,0,1.45-.18,2.09-.55.64-.37,1.14-.87,1.5-1.5s.54-1.34.54-2.11-.18-1.47-.54-2.09-.86-1.12-1.52-1.5c-.65-.37-1.34-.56-2.08-.56Z"/><path class="cls-2" d="M314.78,107.61h.92v1.29c.37-.49.78-.86,1.23-1.11.45-.24.94-.37,1.46-.37s1.01.14,1.43.41c.42.27.72.64.92,1.1.2.46.3,1.18.3,2.16v3.7h-.92v-3.42c0-.83-.04-1.38-.1-1.66-.11-.48-.31-.83-.62-1.07-.3-.24-.7-.36-1.19-.36-.56,0-1.06.18-1.5.55-.44.37-.73.83-.88,1.37-.09.36-.13,1.01-.13,1.95v2.63h-.92v-7.18Z"/><path class="cls-2" d="M322.89,104.83h.92v9.95h-.92v-9.95Z"/><path class="cls-2" d="M326.05,104.65c.21,0,.39.08.54.22.15.15.22.33.22.54s-.07.38-.22.53c-.15.15-.33.22-.54.22s-.38-.07-.53-.22c-.15-.15-.22-.33-.22-.53s.07-.39.22-.54c.15-.15.33-.22.53-.22ZM325.59,107.61h.92v7.18h-.92v-7.18Z"/><path class="cls-2" d="M328.44,107.61h.92v1.29c.37-.49.78-.86,1.23-1.11.45-.24.94-.37,1.46-.37s1.01.14,1.43.41c.42.27.72.64.92,1.1.2.46.3,1.18.3,2.16v3.7h-.92v-3.42c0-.83-.04-1.38-.1-1.66-.11-.48-.31-.83-.62-1.07-.3-.24-.7-.36-1.19-.36-.56,0-1.06.18-1.5.55-.44.37-.73.83-.88,1.37-.09.36-.13,1.01-.13,1.95v2.63h-.92v-7.18Z"/><path class="cls-2" d="M342.72,112.4l.78.41c-.26.5-.55.91-.88,1.21-.33.31-.71.54-1.13.7s-.89.24-1.42.24c-1.17,0-2.09-.38-2.75-1.15-.66-.77-.99-1.64-.99-2.6,0-.91.28-1.72.84-2.44.71-.91,1.66-1.36,2.85-1.36s2.2.46,2.93,1.39c.52.66.78,1.47.79,2.45h-6.46c.02.83.28,1.52.8,2.05.51.53,1.15.8,1.91.8.37,0,.72-.06,1.07-.19.35-.13.64-.3.88-.51.24-.21.5-.55.79-1.02ZM342.72,110.47c-.12-.49-.3-.89-.54-1.18-.24-.29-.55-.53-.93-.71-.39-.18-.79-.27-1.22-.27-.7,0-1.31.23-1.82.68-.37.33-.65.82-.84,1.48h5.35Z"/></svg>